<?xml version="1.0" encoding="utf-8"?>
<!-- Generator: Adobe Illustrator 22.1.0, SVG Export Plug-In . SVG Version: 6.00 Build 0)  -->
<svg version="1.1" id="Layer_1" xmlns="http://www.w3.org/2000/svg" xmlns:xlink="http://www.w3.org/1999/xlink" x="0px" y="0px"
	 viewBox="0 0 640 480" style="enable-background:new 0 0 640 480;" xml:space="preserve">
<style type="text/css">
	.st0{fill:#FFC217;}
</style>
<path id="b" class="st0" d="M423.2,0h26v38.6h0.3c5.4-7.3,12.9-11,22.6-11c22.5,0,33.5,19.6,33.5,40.2c0,22.3-10.6,43.8-35.5,43.8
	c-9.2,0-16.8-4-21.9-11.5H448v9.2h-24.8V0z M448.3,68.7c0,13.9,4,23,15.8,23c11.6,0,15.6-12.1,15.6-23c0-10.1-4-21.3-15.5-21.3
	C457.2,47.4,448.3,52.3,448.3,68.7z"/>
</svg>
