<?xml version="1.0" encoding="utf-8"?>
<!-- Generator: Adobe Illustrator 22.1.0, SVG Export Plug-In . SVG Version: 6.00 Build 0)  -->
<svg version="1.1" id="Layer_1" xmlns="http://www.w3.org/2000/svg" xmlns:xlink="http://www.w3.org/1999/xlink" x="0px" y="0px"
	 viewBox="0 0 81.4 109.5" style="enable-background:new 0 0 81.4 109.5;" xml:space="preserve">
<style type="text/css">
	.st0{fill:#F15A29;}
</style>
<path id="g" class="st0" d="M81.4,72.1c0,13-2.4,37.5-39.6,37.5c-18.5,0-36-4.1-39-25.4h26c0.6,3.5,2,5.7,4.4,6.9
	c2.3,1.2,5.5,1.7,9.5,1.7c12.4,0,13.6-8.7,13.6-18.5v-7.5H56c-4.7,7.3-12.7,11.6-21.1,11.6C10.9,78.3,0,61.2,0,38.9
	C0,17.7,12.4,0,34.9,0c9.5,0,16.7,4.1,21.3,12.2h0.3V2.3h24.9V72.1z M41.2,19.9C29.7,19.9,26,30,26,39.8c0,9.3,4.3,18.7,15,18.7
	c11,0,15.8-8.6,15.8-18.5C56.8,29.8,52.8,19.9,41.2,19.9z"/>
</svg>
