<?xml version="1.0" encoding="utf-8"?>
<!-- Generator: Adobe Illustrator 22.1.0, SVG Export Plug-In . SVG Version: 6.00 Build 0)  -->
<svg version="1.1" id="Layer_1" xmlns="http://www.w3.org/2000/svg" xmlns:xlink="http://www.w3.org/1999/xlink" x="0px" y="0px"
	 viewBox="0 0 82.5 108.3" style="enable-background:new 0 0 82.5 108.3;" xml:space="preserve">
<style type="text/css">
	.st0{fill:#21409A;}
</style>
<path id="q" class="st0" d="M82.5,108.3h-26V73h-0.3c-5.4,7.3-12.9,11-22.6,11C11,84,0,64.4,0,43.8C0,21.4,10.6,0,35.5,0
	c9.2,0,16.8,4,21.9,11.5h0.3V2.3h24.8V108.3z M41.5,64.1c7,0,15.9-4.9,15.9-21.4c0-10.7-3.1-22.8-15.5-22.8C30,19.9,26,32,26,42.8
	C26,52.9,30,64.1,41.5,64.1z"/>
</svg>
