<?xml version="1.0" encoding="utf-8"?>
<!-- Generator: Adobe Illustrator 22.1.0, SVG Export Plug-In . SVG Version: 6.00 Build 0)  -->
<svg version="1.1" id="Layer_1" xmlns="http://www.w3.org/2000/svg" xmlns:xlink="http://www.w3.org/1999/xlink" x="0px" y="0px"
	 viewBox="0 0 786.8 127.6" style="enable-background:new 0 0 786.8 127.6;" xml:space="preserve">
<style type="text/css">
	.st0{fill:#939598;}
</style>
<g>
	<path class="st0" d="M109,28.8c-1.8-1.3-4-1.9-6.5-1.9c-2.1,0-4,0.4-5.5,1.2c-1.5,0.8-2.8,1.9-3.8,3.2c-1,1.3-1.7,2.9-2.2,4.6
		c-0.5,1.7-0.7,3.5-0.7,5.4c0,2,0.2,4,0.7,5.8c0.5,1.8,1.2,3.4,2.2,4.8c1,1.4,2.2,2.4,3.8,3.2c1.5,0.8,3.4,1.2,5.5,1.2
		c1.6,0,3-0.3,4.2-0.8c1.2-0.5,2.3-1.2,3.1-2.2c0.9-0.9,1.6-2,2.1-3.3s0.8-2.6,0.9-4.1h4.8c-0.5,4.5-2,8-4.6,10.5
		c-2.6,2.5-6.2,3.8-10.8,3.8c-2.8,0-5.2-0.5-7.2-1.4c-2.1-1-3.8-2.3-5.1-3.9c-1.4-1.7-2.4-3.6-3.1-5.9c-0.7-2.3-1-4.7-1-7.3
		s0.4-5,1.1-7.3c0.7-2.3,1.8-4.3,3.2-6c1.4-1.7,3.2-3,5.3-4c2.1-1,4.5-1.5,7.3-1.5c1.9,0,3.6,0.2,5.3,0.8c1.7,0.5,3.1,1.2,4.4,2.2
		c1.3,1,2.4,2.2,3.2,3.6c0.9,1.4,1.4,3.1,1.7,5h-4.8C111.9,32,110.8,30.1,109,28.8z"/>
	<path class="st0" d="M141.1,57.8c-1.9,1.5-4.4,2.2-7.3,2.2c-2.1,0-3.9-0.3-5.4-1c-1.5-0.7-2.8-1.6-3.8-2.8c-1-1.2-1.8-2.6-2.3-4.3
		c-0.5-1.7-0.8-3.5-0.9-5.5c0-2,0.3-3.8,0.9-5.4c0.6-1.6,1.4-3,2.5-4.2c1.1-1.2,2.4-2.1,3.9-2.8c1.5-0.7,3.1-1,4.9-1
		c2.3,0,4.2,0.5,5.7,1.4c1.5,1,2.7,2.2,3.7,3.6c0.9,1.5,1.5,3.1,1.9,4.8s0.5,3.4,0.4,4.9h-19.4c0,1.1,0.1,2.2,0.4,3.2
		c0.3,1,0.8,1.9,1.4,2.7c0.7,0.8,1.5,1.4,2.6,1.9c1,0.5,2.2,0.7,3.6,0.7c1.8,0,3.3-0.4,4.4-1.2c1.1-0.8,1.9-2.1,2.3-3.8h4.2
		C144.3,54.2,143,56.4,141.1,57.8z M140.1,41.2c-0.4-0.9-0.9-1.7-1.6-2.3c-0.6-0.6-1.4-1.2-2.3-1.5c-0.9-0.4-1.9-0.6-2.9-0.6
		c-1.1,0-2.1,0.2-3,0.6c-0.9,0.4-1.6,0.9-2.3,1.6c-0.6,0.7-1.1,1.4-1.5,2.3c-0.4,0.9-0.6,1.8-0.7,2.8h14.9
		C140.7,43.1,140.4,42.1,140.1,41.2z"/>
	<path class="st0" d="M154.1,23.8v35.7h-4.2V23.8H154.1z"/>
	<path class="st0" d="M179,57.8c-1.9,1.5-4.4,2.2-7.3,2.2c-2.1,0-3.9-0.3-5.4-1c-1.5-0.7-2.8-1.6-3.8-2.8c-1-1.2-1.8-2.6-2.3-4.3
		c-0.5-1.7-0.8-3.5-0.9-5.5c0-2,0.3-3.8,0.9-5.4c0.6-1.6,1.4-3,2.5-4.2c1.1-1.2,2.4-2.1,3.9-2.8c1.5-0.7,3.1-1,4.9-1
		c2.3,0,4.2,0.5,5.7,1.4c1.5,1,2.7,2.2,3.7,3.6c0.9,1.5,1.5,3.1,1.9,4.8c0.4,1.7,0.5,3.4,0.4,4.9h-19.3c0,1.1,0.1,2.2,0.4,3.2
		c0.3,1,0.8,1.9,1.4,2.7s1.5,1.4,2.6,1.9c1,0.5,2.2,0.7,3.6,0.7c1.8,0,3.3-0.4,4.4-1.2c1.2-0.8,1.9-2.1,2.3-3.8h4.2
		C182.2,54.2,181,56.4,179,57.8z M178,41.2c-0.4-0.9-0.9-1.7-1.5-2.3c-0.7-0.6-1.4-1.2-2.3-1.5c-0.9-0.4-1.9-0.6-2.9-0.6
		c-1.1,0-2.1,0.2-3,0.6c-0.9,0.4-1.6,0.9-2.3,1.6c-0.6,0.7-1.1,1.4-1.5,2.3c-0.4,0.9-0.6,1.8-0.7,2.8h14.8
		C178.6,43.1,178.4,42.1,178,41.2z"/>
	<path class="st0" d="M192,23.8v13.4h0.1c0.7-1.4,1.8-2.5,3.3-3.1c1.5-0.7,3.2-1,5-1c2,0,3.7,0.4,5.2,1.1s2.7,1.7,3.7,3
		s1.7,2.7,2.2,4.3c0.5,1.6,0.8,3.4,0.8,5.2s-0.2,3.6-0.7,5.2c-0.5,1.6-1.2,3.1-2.2,4.3s-2.2,2.2-3.7,2.9c-1.5,0.7-3.2,1-5.2,1
		c-0.6,0-1.3-0.1-2.1-0.2s-1.6-0.3-2.3-0.6c-0.8-0.3-1.5-0.7-2.2-1.2c-0.7-0.5-1.3-1.2-1.7-1.9H192v3.5h-4.2V23.8H192z M207.3,42.8
		c-0.3-1.2-0.8-2.2-1.5-3.1c-0.6-0.9-1.5-1.6-2.5-2.2c-1-0.5-2.2-0.8-3.6-0.8c-1.4,0-2.7,0.3-3.7,0.9s-1.8,1.3-2.5,2.2
		c-0.6,0.9-1.1,2-1.4,3.1c-0.3,1.2-0.4,2.3-0.4,3.5c0,1.3,0.2,2.5,0.5,3.7c0.3,1.2,0.8,2.2,1.4,3.1c0.7,0.9,1.5,1.6,2.5,2.2
		c1,0.5,2.3,0.8,3.8,0.8c1.5,0,2.7-0.3,3.7-0.8c1-0.6,1.8-1.3,2.4-2.2c0.6-0.9,1-2,1.3-3.2c0.3-1.2,0.4-2.4,0.4-3.7
		C207.7,45.1,207.6,44,207.3,42.8z"/>
	<path class="st0" d="M221.1,33.6v5.4h0.1c1-2.1,2.3-3.6,3.8-4.6s3.4-1.5,5.7-1.4v4.5c-1.7,0-3.2,0.2-4.4,0.7
		c-1.2,0.5-2.2,1.2-2.9,2c-0.7,0.9-1.3,2-1.6,3.3s-0.5,2.8-0.5,4.4v11.5h-4.2V33.6H221.1z"/>
	<path class="st0" d="M256.8,59.4c-0.7,0.4-1.8,0.6-3.1,0.6c-1.1,0-2-0.3-2.6-0.9c-0.6-0.6-1-1.6-1-3c-1.2,1.4-2.5,2.4-4.1,3
		s-3.2,0.9-5,0.9c-1.2,0-2.3-0.1-3.3-0.4c-1-0.3-2-0.7-2.7-1.2s-1.4-1.3-1.8-2.2c-0.5-0.9-0.7-2-0.7-3.3c0-1.5,0.2-2.7,0.8-3.6
		c0.5-0.9,1.2-1.7,2-2.3c0.8-0.6,1.8-1,2.8-1.3c1-0.3,2.1-0.6,3.2-0.8c1.2-0.2,2.3-0.4,3.3-0.5c1-0.1,2-0.3,2.8-0.5s1.4-0.5,1.9-1
		c0.5-0.4,0.7-1,0.7-1.8c0-0.9-0.2-1.7-0.5-2.2c-0.4-0.6-0.8-1-1.4-1.3s-1.2-0.5-1.8-0.6c-0.7-0.1-1.4-0.2-2-0.2
		c-1.8,0-3.3,0.3-4.5,1c-1.2,0.7-1.8,2-2,3.9h-4.2c0.1-1.6,0.4-3,1-4c0.6-1.1,1.4-2,2.4-2.7c1-0.7,2.1-1.2,3.4-1.5s2.7-0.5,4.1-0.5
		c1.2,0,2.3,0.1,3.5,0.2c1.1,0.2,2.2,0.5,3.1,1c0.9,0.5,1.7,1.2,2.2,2.2c0.6,0.9,0.8,2.1,0.8,3.6v13.3c0,1,0.1,1.7,0.2,2.2
		c0.1,0.5,0.5,0.7,1.2,0.7c0.4,0,0.8-0.1,1.3-0.2V59.4z M249.9,46.1c-0.5,0.4-1.2,0.7-2.1,0.9c-0.9,0.2-1.8,0.3-2.7,0.4
		c-1,0.1-1.9,0.2-2.9,0.4s-1.8,0.4-2.6,0.7c-0.8,0.3-1.4,0.8-1.9,1.4c-0.5,0.6-0.7,1.5-0.7,2.5c0,0.7,0.1,1.3,0.4,1.8
		c0.3,0.5,0.6,0.9,1.1,1.2c0.5,0.3,1,0.5,1.6,0.6c0.6,0.1,1.2,0.2,1.9,0.2c1.4,0,2.6-0.2,3.6-0.6c1-0.4,1.8-0.9,2.5-1.4
		c0.6-0.6,1.1-1.2,1.4-1.9s0.5-1.3,0.5-1.9V46.1z"/>
	<path class="st0" d="M271.8,33.6v3.8h-5.1v16c0,0.5,0,0.9,0.1,1.2c0.1,0.3,0.2,0.5,0.5,0.7c0.2,0.2,0.6,0.3,1,0.3s1,0.1,1.6,0.1h2
		v3.8h-3.2c-1.1,0-2-0.1-2.8-0.2c-0.8-0.2-1.4-0.4-1.9-0.8c-0.5-0.4-0.8-1-1.1-1.7c-0.2-0.7-0.3-1.7-0.3-2.9V37.4H258v-3.8h4.4v-7.8
		h4.2v7.8H271.8z"/>
	<path class="st0" d="M276.7,29v-5.2h4.2V29H276.7z M281,33.6v25.8h-4.2V33.6H281z"/>
	<path class="st0" d="M291.6,33.6v4.1h0.1c1.8-3.1,4.6-4.7,8.4-4.7c1.7,0,3.1,0.2,4.2,0.7c1.1,0.5,2,1.1,2.8,2s1.2,1.8,1.5,3
		c0.3,1.2,0.4,2.4,0.4,3.8v17h-4.2V42c0-1.6-0.5-2.9-1.4-3.8c-0.9-0.9-2.2-1.4-3.8-1.4c-1.3,0-2.4,0.2-3.4,0.6c-1,0.4-1.7,1-2.4,1.7
		c-0.6,0.7-1.1,1.6-1.4,2.6c-0.3,1-0.5,2.1-0.5,3.2v14.6h-4.2V33.6H291.6z"/>
	<path class="st0" d="M334.8,66.8c-1.9,2.1-5,3.2-9.1,3.2c-1.2,0-2.4-0.1-3.7-0.4s-2.4-0.7-3.4-1.3s-1.9-1.4-2.5-2.3
		c-0.7-1-1-2.2-1.1-3.6h4.2c0,0.8,0.3,1.4,0.7,2s1,1,1.6,1.3c0.7,0.3,1.4,0.6,2.1,0.7c0.8,0.1,1.5,0.2,2.2,0.2
		c1.4,0,2.6-0.2,3.5-0.7c1-0.5,1.8-1.2,2.4-2c0.6-0.9,1.1-1.9,1.4-3.1s0.4-2.5,0.4-4v-1.7h-0.1c-0.7,1.6-1.8,2.8-3.3,3.5
		c-1.5,0.8-3.1,1.1-4.7,1.1c-1.9,0-3.6-0.3-5.1-1s-2.6-1.6-3.6-2.8c-1-1.2-1.7-2.6-2.2-4.2c-0.5-1.6-0.7-3.3-0.7-5
		c0-1.5,0.2-3.1,0.6-4.7c0.4-1.6,1.1-3.1,2-4.4c0.9-1.3,2.2-2.4,3.7-3.2c1.5-0.9,3.4-1.3,5.6-1.3c1.6,0,3.1,0.4,4.5,1.1
		c1.4,0.7,2.4,1.8,3.2,3.2h0v-3.7h4v23.6C337.7,61.5,336.7,64.7,334.8,66.8z M329.3,55.2c1-0.6,1.8-1.3,2.4-2.3c0.6-1,1-2,1.3-3.2
		c0.3-1.2,0.4-2.4,0.4-3.6c0-1.1-0.1-2.2-0.4-3.3c-0.3-1.1-0.7-2.1-1.3-3c-0.6-0.9-1.3-1.6-2.3-2.1c-0.9-0.5-2.1-0.8-3.4-0.8
		c-1.4,0-2.5,0.3-3.5,0.8s-1.8,1.2-2.4,2.1c-0.6,0.9-1.1,1.9-1.3,3c-0.3,1.1-0.4,2.3-0.4,3.5c0,1.2,0.1,2.3,0.4,3.5
		c0.2,1.2,0.6,2.2,1.2,3.2c0.6,1,1.3,1.7,2.2,2.3c0.9,0.6,2.1,0.9,3.5,0.9C327.2,56,328.4,55.8,329.3,55.2z"/>
	<path class="st0" d="M376.5,28.7c-1.6-1.1-3.6-1.7-6.1-1.7c-1,0-2,0.1-3,0.3s-1.8,0.5-2.6,1s-1.3,1.1-1.8,1.9s-0.7,1.8-0.7,2.9
		c0,1.1,0.3,2,1,2.7c0.7,0.7,1.5,1.2,2.6,1.7c1.1,0.4,2.3,0.8,3.7,1.1c1.4,0.3,2.8,0.6,4.2,0.9s2.8,0.7,4.2,1.2
		c1.4,0.5,2.6,1.1,3.7,1.8s2,1.7,2.6,2.9c0.6,1.2,1,2.6,1,4.4c0,1.9-0.4,3.5-1.3,4.9c-0.9,1.3-1.9,2.5-3.3,3.3
		c-1.3,0.8-2.8,1.5-4.5,1.8c-1.7,0.4-3.3,0.6-4.9,0.6c-2,0-3.9-0.2-5.7-0.8s-3.3-1.3-4.7-2.3c-1.4-1-2.4-2.3-3.2-3.9
		c-0.8-1.6-1.2-3.5-1.2-5.6h4.5c0,1.5,0.3,2.8,0.9,3.9c0.6,1.1,1.3,2,2.3,2.7s2.1,1.2,3.3,1.5c1.3,0.3,2.6,0.5,3.9,0.5
		c1.1,0,2.1-0.1,3.2-0.3c1.1-0.2,2.1-0.5,2.9-1c0.9-0.5,1.6-1.1,2.1-2c0.5-0.8,0.8-1.9,0.8-3.2c0-1.2-0.3-2.2-1-3
		c-0.7-0.8-1.5-1.4-2.6-1.9c-1.1-0.5-2.3-0.9-3.7-1.2s-2.8-0.6-4.2-0.9c-1.4-0.3-2.8-0.7-4.2-1.1c-1.4-0.4-2.6-1-3.7-1.7
		c-1.1-0.7-2-1.6-2.6-2.7c-0.6-1.1-1-2.4-1-4.1c0-1.8,0.4-3.4,1.1-4.7c0.7-1.3,1.7-2.4,2.9-3.2c1.2-0.8,2.6-1.5,4.1-1.9
		s3.1-0.6,4.8-0.6c1.8,0,3.5,0.2,5.1,0.6c1.6,0.4,2.9,1.1,4.1,2.1c1.2,0.9,2.1,2.1,2.8,3.5c0.7,1.4,1.1,3.1,1.1,5.1h-4.5
		C379.1,31.7,378.1,29.8,376.5,28.7z"/>
	<path class="st0" d="M401.4,33.6v3.8h-5.2v16c0,0.5,0,0.9,0.1,1.2c0.1,0.3,0.2,0.5,0.5,0.7c0.2,0.2,0.6,0.3,1,0.3s1,0.1,1.6,0.1h2
		v3.8h-3.2c-1.1,0-2-0.1-2.8-0.2c-0.8-0.2-1.4-0.4-1.9-0.8c-0.5-0.4-0.8-1-1.1-1.7c-0.2-0.7-0.4-1.7-0.4-2.9V37.4h-4.4v-3.8h4.4
		v-7.8h4.2v7.8H401.4z"/>
	<path class="st0" d="M405.5,41.3c0.5-1.7,1.3-3.1,2.4-4.3c1.1-1.2,2.4-2.2,4-2.9c1.6-0.7,3.4-1,5.4-1c2.1,0,3.9,0.4,5.4,1
		c1.5,0.7,2.9,1.7,3.9,2.9c1.1,1.2,1.9,2.7,2.4,4.3c0.5,1.6,0.8,3.4,0.8,5.3c0,1.9-0.3,3.7-0.8,5.3s-1.3,3.1-2.4,4.3
		c-1.1,1.2-2.4,2.2-3.9,2.9c-1.6,0.7-3.4,1-5.4,1c-2,0-3.8-0.3-5.4-1c-1.6-0.7-2.9-1.6-4-2.9c-1.1-1.2-1.9-2.6-2.4-4.3
		s-0.8-3.4-0.8-5.3C404.7,44.7,405,42.9,405.5,41.3z M409.8,50.8c0.4,1.2,1,2.2,1.7,3c0.7,0.8,1.6,1.4,2.6,1.9c1,0.4,2,0.6,3.1,0.6
		c1.1,0,2.1-0.2,3.1-0.6c1-0.4,1.8-1.1,2.6-1.9c0.7-0.8,1.3-1.8,1.7-3c0.4-1.2,0.6-2.6,0.6-4.2c0-1.6-0.2-3-0.6-4.2
		c-0.4-1.2-1-2.2-1.7-3.1c-0.7-0.8-1.6-1.5-2.6-1.9c-1-0.4-2-0.7-3.1-0.7c-1.1,0-2.1,0.2-3.1,0.7c-1,0.4-1.8,1.1-2.6,1.9
		c-0.7,0.8-1.3,1.9-1.7,3.1c-0.4,1.2-0.6,2.6-0.6,4.2C409.2,48.2,409.4,49.6,409.8,50.8z"/>
	<path class="st0" d="M438.8,33.6v4.1h0.1c1.8-3.1,4.6-4.7,8.4-4.7c1.7,0,3.1,0.2,4.2,0.7c1.1,0.5,2,1.1,2.8,2s1.2,1.8,1.5,3
		c0.3,1.2,0.4,2.4,0.4,3.8v17H452V42c0-1.6-0.5-2.9-1.4-3.8c-0.9-0.9-2.2-1.4-3.9-1.4c-1.3,0-2.4,0.2-3.4,0.6
		c-0.9,0.4-1.7,1-2.4,1.7c-0.6,0.7-1.1,1.6-1.4,2.6c-0.3,1-0.5,2.1-0.5,3.2v14.6h-4.2V33.6H438.8z"/>
	<path class="st0" d="M480.9,57.8c-1.9,1.5-4.4,2.2-7.3,2.2c-2.1,0-3.9-0.3-5.4-1c-1.5-0.7-2.8-1.6-3.8-2.8s-1.8-2.6-2.3-4.3
		s-0.8-3.5-0.9-5.5c0-2,0.3-3.8,0.9-5.4c0.6-1.6,1.4-3,2.5-4.2c1.1-1.2,2.4-2.1,3.9-2.8c1.5-0.7,3.1-1,4.9-1c2.3,0,4.2,0.5,5.7,1.4
		c1.5,1,2.7,2.2,3.7,3.6c0.9,1.5,1.5,3.1,1.9,4.8c0.4,1.7,0.5,3.4,0.4,4.9h-19.4c0,1.1,0.1,2.2,0.4,3.2s0.8,1.9,1.5,2.7
		c0.7,0.8,1.5,1.4,2.5,1.9c1,0.5,2.2,0.7,3.6,0.7c1.8,0,3.3-0.4,4.4-1.2c1.1-0.8,1.9-2.1,2.3-3.8h4.2
		C484.1,54.2,482.9,56.4,480.9,57.8z M479.9,41.2c-0.4-0.9-0.9-1.7-1.5-2.3c-0.6-0.6-1.4-1.2-2.3-1.5c-0.9-0.4-1.9-0.6-2.9-0.6
		c-1.1,0-2.1,0.2-3,0.6c-0.9,0.4-1.6,0.9-2.3,1.6c-0.6,0.7-1.1,1.4-1.5,2.3c-0.4,0.9-0.6,1.8-0.7,2.8h14.9
		C480.5,43.1,480.3,42.1,479.9,41.2z"/>
	<path class="st0" d="M510.6,59.5l-5.2-20.5h-0.1L500,59.5h-4.6l-8.3-25.8h4.7l5.9,21.1h0.1l5.2-21.1h4.6l5.4,21.1h0.1l5.8-21.1h4.4
		l-8.2,25.8H510.6z"/>
	<path class="st0" d="M550.3,59.4c-0.7,0.4-1.8,0.6-3,0.6c-1.1,0-2-0.3-2.6-0.9c-0.6-0.6-1-1.6-1-3c-1.2,1.4-2.5,2.4-4.1,3
		s-3.2,0.9-5,0.9c-1.2,0-2.3-0.1-3.3-0.4c-1.1-0.3-2-0.7-2.7-1.2s-1.4-1.3-1.8-2.2c-0.4-0.9-0.7-2-0.7-3.3c0-1.5,0.2-2.7,0.8-3.6
		c0.5-0.9,1.2-1.7,2-2.3c0.8-0.6,1.8-1,2.8-1.3c1-0.3,2.1-0.6,3.2-0.8c1.2-0.2,2.3-0.4,3.3-0.5c1-0.1,2-0.3,2.8-0.5
		c0.8-0.2,1.4-0.5,1.9-1c0.5-0.4,0.7-1,0.7-1.8c0-0.9-0.2-1.7-0.5-2.2c-0.3-0.6-0.8-1-1.3-1.3s-1.2-0.5-1.8-0.6
		c-0.7-0.1-1.4-0.2-2-0.2c-1.8,0-3.3,0.3-4.5,1c-1.2,0.7-1.8,2-2,3.9H527c0.1-1.6,0.4-3,1-4c0.6-1.1,1.4-2,2.4-2.7
		c1-0.7,2.1-1.2,3.4-1.5s2.7-0.5,4.1-0.5c1.2,0,2.3,0.1,3.5,0.2c1.2,0.2,2.2,0.5,3.1,1s1.7,1.2,2.2,2.2c0.6,0.9,0.9,2.1,0.9,3.6
		v13.3c0,1,0.1,1.7,0.2,2.2c0.1,0.5,0.5,0.7,1.2,0.7c0.4,0,0.8-0.1,1.3-0.2V59.4z M543.4,46.1c-0.5,0.4-1.2,0.7-2.1,0.9
		c-0.9,0.2-1.8,0.3-2.7,0.4c-1,0.1-1.9,0.2-2.9,0.4s-1.8,0.4-2.6,0.7c-0.8,0.3-1.4,0.8-1.9,1.4c-0.5,0.6-0.7,1.5-0.7,2.5
		c0,0.7,0.1,1.3,0.4,1.8s0.7,0.9,1.1,1.2c0.5,0.3,1,0.5,1.6,0.6c0.6,0.1,1.2,0.2,1.9,0.2c1.4,0,2.6-0.2,3.6-0.6
		c1-0.4,1.8-0.9,2.4-1.4s1.1-1.2,1.4-1.9s0.5-1.3,0.5-1.9V46.1z"/>
	<path class="st0" d="M558.7,23.8v35.7h-4.2V23.8H558.7z"/>
	<path class="st0" d="M569.8,23.8v35.7h-4.2V23.8H569.8z"/>
	<path class="st0" d="M582.9,23.8v5.5c0,1-0.1,1.9-0.3,2.8c-0.2,0.9-0.5,1.7-1,2.3c-0.5,0.7-1,1.2-1.7,1.6c-0.7,0.4-1.5,0.6-2.5,0.6
		v-2.5c0.6,0,1-0.1,1.4-0.4s0.7-0.7,0.9-1.1c0.2-0.5,0.4-1,0.5-1.6s0.1-1.2,0.1-1.7h-2.9v-5.5H582.9z"/>
	<path class="st0" d="M589.9,53.7c0.4,0.7,0.9,1.2,1.6,1.6c0.6,0.4,1.4,0.7,2.2,0.8c0.8,0.2,1.7,0.2,2.5,0.2c0.7,0,1.4,0,2.1-0.1
		c0.7-0.1,1.4-0.3,2-0.5c0.6-0.3,1.1-0.7,1.5-1.2c0.4-0.5,0.6-1.2,0.6-2c0-1.1-0.4-1.9-1.2-2.5c-0.8-0.6-1.9-1-3.1-1.4
		s-2.6-0.7-4.1-1c-1.5-0.3-2.8-0.7-4.1-1.2c-1.2-0.5-2.3-1.2-3.1-2.2c-0.8-0.9-1.2-2.2-1.2-3.9c0-1.3,0.3-2.4,0.9-3.4
		c0.6-0.9,1.3-1.7,2.2-2.3s2-1,3.1-1.3c1.1-0.3,2.3-0.4,3.4-0.4c1.5,0,2.8,0.1,4,0.4s2.3,0.7,3.3,1.3c1,0.6,1.7,1.5,2.3,2.5
		c0.6,1.1,0.9,2.4,1,3.9h-4.2c-0.1-0.8-0.3-1.5-0.6-2.1c-0.4-0.5-0.8-1-1.4-1.3c-0.6-0.3-1.2-0.6-1.9-0.7c-0.7-0.2-1.4-0.2-2.1-0.2
		c-0.6,0-1.3,0-1.9,0.2c-0.6,0.1-1.2,0.3-1.8,0.5c-0.5,0.2-1,0.6-1.3,1c-0.3,0.4-0.5,1-0.5,1.6c0,0.7,0.3,1.3,0.8,1.8
		c0.5,0.5,1.2,0.9,2,1.2c0.8,0.3,1.7,0.6,2.7,0.8c1,0.2,2,0.4,3,0.7c1.1,0.2,2.1,0.5,3.1,0.9s1.9,0.8,2.7,1.3
		c0.8,0.5,1.4,1.2,1.9,2.1c0.5,0.8,0.7,1.9,0.7,3.1c0,1.6-0.3,2.9-1,3.9c-0.7,1-1.5,1.9-2.6,2.5c-1,0.6-2.2,1.1-3.5,1.3
		c-1.3,0.2-2.6,0.4-3.9,0.4c-1.4,0-2.8-0.1-4.1-0.5c-1.3-0.3-2.5-0.8-3.5-1.5c-1-0.7-1.8-1.6-2.4-2.7c-0.6-1.1-0.9-2.5-1-4.1h4.2
		C589.3,52.3,589.5,53.1,589.9,53.7z"/>
	<path class="st0" d="M631.5,28.4l-1.9,10.2l0.1,0.1c0.8-0.9,1.8-1.5,3-1.9s2.4-0.6,3.6-0.6c1.6,0,3,0.2,4.5,0.8
		c1.4,0.5,2.6,1.3,3.6,2.3c1,1,1.9,2.3,2.5,3.8c0.6,1.5,0.9,3.3,0.9,5.3c0,1.5-0.3,3-0.8,4.4c-0.5,1.4-1.3,2.7-2.3,3.8
		c-1,1.1-2.3,2-3.9,2.6c-1.5,0.6-3.4,1-5.4,1c-1.5,0-3-0.2-4.3-0.7c-1.3-0.5-2.5-1.1-3.6-2c-1-0.8-1.9-1.9-2.5-3.2
		c-0.6-1.3-0.9-2.7-1-4.3h4.2c0.1,0.9,0.3,1.7,0.7,2.5c0.4,0.8,0.9,1.5,1.5,2.1c0.7,0.6,1.4,1,2.3,1.3c0.9,0.3,1.9,0.5,2.9,0.5
		c1,0,2-0.2,2.9-0.5c0.9-0.4,1.7-0.9,2.4-1.6s1.2-1.6,1.6-2.6c0.4-1,0.6-2.3,0.6-3.7c0-1.2-0.2-2.2-0.6-3.2c-0.4-1-0.9-1.8-1.6-2.5
		c-0.7-0.7-1.5-1.3-2.5-1.7s-2.1-0.6-3.3-0.6c-1.4,0-2.6,0.3-3.7,0.9c-1.1,0.6-2,1.4-2.9,2.4L625,43l3.3-18.4h17.5v3.8H631.5z"/>
	<path class="st0" d="M652.3,38c0.1-1.4,0.2-2.8,0.5-4.1c0.3-1.3,0.6-2.6,1.1-3.8c0.5-1.2,1.2-2.2,2.1-3.2c0.9-0.9,2-1.6,3.3-2.2
		c1.3-0.5,2.9-0.8,4.7-0.8c1.8,0,3.4,0.3,4.7,0.8c1.3,0.5,2.4,1.2,3.3,2.2c0.9,0.9,1.5,2,2,3.2c0.5,1.2,0.9,2.5,1.1,3.8
		s0.4,2.7,0.5,4.1c0.1,1.4,0.1,2.8,0.1,4c0,1.3,0,2.7-0.1,4.1c-0.1,1.4-0.2,2.8-0.5,4.1c-0.3,1.3-0.6,2.6-1.1,3.8s-1.2,2.2-2,3.1
		c-0.9,0.9-2,1.6-3.2,2.1c-1.3,0.5-2.9,0.8-4.8,0.8c-1.8,0-3.4-0.3-4.7-0.8c-1.3-0.5-2.4-1.2-3.3-2.1c-0.9-0.9-1.6-1.9-2.1-3.1
		s-0.9-2.4-1.1-3.8c-0.3-1.3-0.4-2.7-0.5-4.1c-0.1-1.4-0.1-2.8-0.1-4.1C652.2,40.8,652.3,39.4,652.3,38z M656.8,46.5
		c0.1,1.6,0.4,3.2,0.8,4.6c0.4,1.5,1.2,2.7,2.2,3.7s2.4,1.5,4.2,1.5c1.8,0,3.2-0.5,4.2-1.5s1.7-2.2,2.2-3.7c0.4-1.5,0.7-3,0.8-4.6
		c0.1-1.7,0.1-3.1,0.1-4.5c0-0.9,0-1.8,0-2.9s-0.1-2.1-0.2-3.1c-0.1-1.1-0.4-2.1-0.6-3.1c-0.3-1-0.7-1.9-1.2-2.6
		c-0.6-0.8-1.2-1.4-2.1-1.8c-0.8-0.5-1.9-0.7-3-0.7c-1.2,0-2.2,0.2-3.1,0.7s-1.5,1.1-2.1,1.8c-0.6,0.8-1,1.6-1.2,2.6
		c-0.3,1-0.5,2-0.7,3.1c-0.2,1-0.2,2.1-0.2,3.1c0,1,0,2,0,2.9C656.7,43.4,656.8,44.9,656.8,46.5z"/>
	<path class="st0" d="M686.2,27.8V30h-3v9.4c0,0.3,0,0.5,0.1,0.7c0,0.2,0.1,0.3,0.3,0.4c0.1,0.1,0.3,0.2,0.6,0.2c0.2,0,0.6,0,0.9,0
		h1.1v2.2h-1.9c-0.6,0-1.2,0-1.6-0.1c-0.5-0.1-0.8-0.2-1.1-0.5c-0.3-0.2-0.5-0.6-0.6-1c-0.1-0.4-0.2-1-0.2-1.7V30h-2.6v-2.2h2.6
		v-4.5h2.5v4.5H686.2z"/>
	<path class="st0" d="M691.4,22v8h0.1c0.2-0.5,0.5-0.9,0.8-1.2c0.3-0.3,0.7-0.6,1.2-0.8c0.4-0.2,0.9-0.4,1.4-0.5
		c0.5-0.1,0.9-0.1,1.4-0.1c1,0,1.8,0.1,2.5,0.4c0.7,0.3,1.2,0.7,1.6,1.1c0.4,0.5,0.7,1.1,0.9,1.7c0.2,0.7,0.2,1.4,0.2,2.2v9.9H699
		V32.6c0-0.9-0.3-1.7-0.8-2.2s-1.3-0.8-2.2-0.8c-0.8,0-1.4,0.1-2,0.3c-0.6,0.2-1,0.6-1.4,1c-0.4,0.4-0.6,0.9-0.8,1.5
		s-0.3,1.2-0.3,1.9v8.5H689V22H691.4z"/>
</g>
</svg>
