<?xml version="1.0" encoding="utf-8"?>
<!-- Generator: Adobe Illustrator 22.1.0, SVG Export Plug-In . SVG Version: 6.00 Build 0)  -->
<svg version="1.1" id="Layer_1" xmlns="http://www.w3.org/2000/svg" xmlns:xlink="http://www.w3.org/1999/xlink" x="0px" y="0px"
	 viewBox="0 0 85.5 108" style="enable-background:new 0 0 85.5 108;" xml:space="preserve">
<style type="text/css">
	.st0{fill:#F15A29;}
</style>
<path id="two" class="st0" d="M0,108c0.2-13.6,6.1-26.5,16.7-35.5c9.2-8,19.6-13.5,27.8-18.7c8.1-5.4,13.9-10.6,13.9-17.7
	c0-8.3-5.5-13.3-13.8-13.3c-13.8,0-17.6,9.9-17.7,21.6H2.6C1.1,17.9,17.9,0,44.5,0c21.1,0,39.9,11,39.9,33.8
	c0,20.5-14.7,28.2-30.3,37.8c-8.1,5-12.4,7.7-19.3,14.4h50.6v22H0z"/>
</svg>
